<svg width="12" height="13" viewBox="0 0 12 13" fill="none" xmlns="http://www.w3.org/2000/svg">
<path fill-rule="evenodd" clip-rule="evenodd" d="M7.48003 9.80006C7.40503 9.87506 7.31003 9.91006 7.21503 9.91006C7.12003 9.91006 7.02003 9.87506 6.95003 9.80006C6.80503 9.65506 6.80503 9.41506 6.95003 9.27006L9.34509 6.875L1.74979 6.875C1.5448 6.875 1.37479 6.705 1.37479 6.5C1.37479 6.295 1.5448 6.125 1.74979 6.125L9.34497 6.125L6.95003 3.73006C6.80503 3.58506 6.80503 3.34506 6.95003 3.20006C7.09503 3.05506 7.33503 3.05506 7.48003 3.20006L10.515 6.23506C10.66 6.38006 10.66 6.62006 10.515 6.76506L7.48003 9.80006Z" fill="white"/>
</svg>
