<svg width="48" height="48" viewBox="0 0 48 48" fill="none" xmlns="http://www.w3.org/2000/svg">
<g clip-path="url(#clip0_2_606)">
<circle cx="24" cy="24.0001" r="24" fill="white"/>
<path d="M24 18.0001C25.1 18.0001 26 18.9001 26 20.0001C26 21.1001 25.1 22.0001 24 22.0001C22.9 22.0001 22 21.1001 22 20.0001C22 18.9001 22.9 18.0001 24 18.0001ZM24 27.0001C26.7 27.0001 29.8 28.2901 30 29.0001V30.0001H18V29.0101C18.2 28.2901 21.3 27.0001 24 27.0001ZM24 16.0001C21.79 16.0001 20 17.7901 20 20.0001C20 22.2101 21.79 24.0001 24 24.0001C26.21 24.0001 28 22.2101 28 20.0001C28 17.7901 26.21 16.0001 24 16.0001ZM24 25.0001C21.33 25.0001 16 26.3401 16 29.0001V32.0001H32V29.0001C32 26.3401 26.67 25.0001 24 25.0001Z" fill="#3F3F3F"/>
</g>
<rect x="0.5" y="0.500084" width="47" height="47" rx="23.5" stroke="#C6C6C6"/>
<defs>
<clipPath id="clip0_2_606">
<rect y="8.39233e-05" width="48" height="48" rx="24" fill="white"/>
</clipPath>
</defs>
</svg>
