<svg width="24" height="24" viewBox="0 0 24 24" fill="none" xmlns="http://www.w3.org/2000/svg">
<path d="M22 5.17999L10.59 16.6L6.35 12.36L7.76 10.95L10.59 13.78L20.59 3.77999L22 5.17999ZM19.79 10.22C19.92 10.79 20 11.39 20 12C20 16.42 16.42 20 12 20C7.58 20 4 16.42 4 12C4 7.57999 7.58 3.99999 12 3.99999C13.58 3.99999 15.04 4.45999 16.28 5.24999L17.72 3.80999C16.0464 2.62954 14.048 1.99716 12 1.99999C6.48 1.99999 2 6.47999 2 12C2 17.52 6.48 22 12 22C17.52 22 22 17.52 22 12C22 10.81 21.78 9.66999 21.4 8.60999L19.79 10.22Z" fill="#45C000"/>
</svg>
