<svg width="40" height="36" viewBox="0 0 40 36" fill="none" xmlns="http://www.w3.org/2000/svg">
<path d="M24.5 14V25.5C24.5 27.71 22.71 29.5 20.5 29.5C18.29 29.5 16.5 27.71 16.5 25.5V13C16.5 12.337 16.7634 11.7011 17.2322 11.2322C17.7011 10.7634 18.337 10.5 19 10.5C19.663 10.5 20.2989 10.7634 20.7678 11.2322C21.2366 11.7011 21.5 12.337 21.5 13V23.5C21.5 24.05 21.05 24.5 20.5 24.5C19.95 24.5 19.5 24.05 19.5 23.5V14H18V23.5C18 24.163 18.2634 24.7989 18.7322 25.2678C19.2011 25.7366 19.837 26 20.5 26C21.163 26 21.7989 25.7366 22.2678 25.2678C22.7366 24.7989 23 24.163 23 23.5V13C23 10.79 21.21 9 19 9C16.79 9 15 10.79 15 13V25.5C15 28.54 17.46 31 20.5 31C23.54 31 26 28.54 26 25.5V14H24.5Z" fill="#C6C6C6"/>
<rect x="0.5" y="0.5" width="39" height="39" rx="19.5" stroke="#E1A450"/>
</svg>
