<svg width="20" height="20" viewBox="0 0 20 20" fill="none" xmlns="http://www.w3.org/2000/svg">
<path d="M13.75 5.00001V14.5833C13.75 16.425 12.2583 17.9167 10.4167 17.9167C8.57501 17.9167 7.08334 16.425 7.08334 14.5833V4.16668C7.08334 3.61414 7.30284 3.08424 7.69354 2.69354C8.08424 2.30284 8.61414 2.08334 9.16668 2.08334C9.71921 2.08334 10.2491 2.30284 10.6398 2.69354C11.0305 3.08424 11.25 3.61414 11.25 4.16668V12.9167C11.25 13.375 10.875 13.75 10.4167 13.75C9.95834 13.75 9.58334 13.375 9.58334 12.9167V5.00001H8.33334V12.9167C8.33334 13.4692 8.55284 13.9991 8.94354 14.3898C9.33424 14.7805 9.86414 15 10.4167 15C10.9692 15 11.4991 14.7805 11.8898 14.3898C12.2805 13.9991 12.5 13.4692 12.5 12.9167V4.16668C12.5 2.32501 11.0083 0.833344 9.16668 0.833344C7.32501 0.833344 5.83334 2.32501 5.83334 4.16668V14.5833C5.83334 17.1167 7.88334 19.1667 10.4167 19.1667C12.95 19.1667 15 17.1167 15 14.5833V5.00001H13.75Z" fill="#9B9B9B"/>
</svg>
