<svg width="36" height="36" viewBox="0 0 36 36" fill="none" xmlns="http://www.w3.org/2000/svg">
<path d="M11.1188 18C9.09376 18.0625 7.4375 18.8625 6.14999 20.4H3.63751C2.6125 20.4 1.75 20.1468 1.05001 19.6406C0.350002 19.1343 0 18.3937 0 17.4187C0 13.0062 0.774998 10.8 2.32499 10.8C2.39999 10.8 2.67187 10.9312 3.14062 11.1937C3.60937 11.4562 4.21874 11.7218 4.96874 11.9906C5.71874 12.2593 6.4625 12.3937 7.2 12.3937C8.0375 12.3937 8.86874 12.25 9.69374 11.9625C9.63125 12.425 9.60001 12.8375 9.60001 13.2C9.60001 14.9375 10.1063 16.5375 11.1188 18ZM31.2 29.9437C31.2 31.4437 30.7438 32.6281 29.8312 33.4968C28.9187 34.3656 27.7063 34.8 26.1938 34.8H9.80624C8.29375 34.8 7.08125 34.3656 6.16876 33.4968C5.25625 32.6281 4.79999 31.4437 4.79999 29.9437C4.79999 29.2812 4.82187 28.6343 4.86562 28.0031C4.90938 27.3718 4.99688 26.6906 5.12813 25.9593C5.25938 25.2281 5.425 24.55 5.625 23.9249C5.825 23.3 6.09374 22.6906 6.43124 22.0968C6.76874 21.5031 7.15625 20.9968 7.59375 20.5781C8.03125 20.1593 8.56563 19.825 9.19687 19.575C9.82812 19.325 10.525 19.1999 11.2875 19.1999C11.4125 19.1999 11.6812 19.3343 12.0937 19.6031C12.5062 19.8718 12.9625 20.1718 13.4625 20.5031C13.9625 20.8343 14.6313 21.1343 15.4687 21.4031C16.3062 21.6718 17.15 21.8062 18 21.8062C18.85 21.8062 19.6938 21.6718 20.5312 21.4031C21.3687 21.1343 22.0375 20.8343 22.5375 20.5031C23.0375 20.1718 23.4937 19.8718 23.9062 19.6031C24.3187 19.3343 24.5875 19.1999 24.7125 19.1999C25.475 19.1999 26.1719 19.325 26.8031 19.575C27.4344 19.825 27.9687 20.1593 28.4062 20.5781C28.8438 20.9968 29.2313 21.5031 29.5688 22.0968C29.9063 22.6906 30.175 23.3 30.375 23.9249C30.575 24.55 30.7406 25.2281 30.8719 25.9593C31.0031 26.6906 31.0906 27.3718 31.1344 28.0031C31.1781 28.6343 31.2 29.2812 31.2 29.9437ZM12 5.99996C12 7.32496 11.5312 8.45621 10.5937 9.39371C9.65624 10.3312 8.525 10.8 7.2 10.8C5.875 10.8 4.74376 10.3312 3.80626 9.39371C2.86876 8.45621 2.40001 7.32496 2.40001 5.99996C2.40001 4.67496 2.86876 3.5437 3.80626 2.6062C4.74376 1.6687 5.875 1.19995 7.2 1.19995C8.525 1.19995 9.65624 1.6687 10.5937 2.6062C11.5312 3.5437 12 4.67496 12 5.99996ZM25.2 13.2C25.2 15.1875 24.4969 16.8843 23.0906 18.2906C21.6844 19.6968 19.9875 20.4 18 20.4C16.0125 20.4 14.3156 19.6968 12.9094 18.2906C11.5031 16.8843 10.8 15.1875 10.8 13.2C10.8 11.2125 11.5031 9.51559 12.9094 8.10934C14.3156 6.70309 16.0125 5.99996 18 5.99996C19.9875 5.99996 21.6844 6.70309 23.0906 8.10934C24.4969 9.51559 25.2 11.2125 25.2 13.2ZM36 17.4187C36 18.3937 35.65 19.1343 34.95 19.6406C34.25 20.1468 33.3875 20.4 32.3625 20.4H29.85C28.5625 18.8625 26.9062 18.0625 24.8812 18C25.8937 16.5375 26.4 14.9375 26.4 13.2C26.4 12.8375 26.3687 12.425 26.3063 11.9625C27.1313 12.25 27.9625 12.3937 28.8 12.3937C29.5375 12.3937 30.2813 12.2593 31.0313 11.9906C31.7813 11.7218 32.3906 11.4562 32.8594 11.1937C33.3281 10.9312 33.6 10.8 33.675 10.8C35.225 10.8 36 13.0062 36 17.4187ZM33.6 5.99996C33.6 7.32496 33.1312 8.45621 32.1937 9.39371C31.2562 10.3312 30.125 10.8 28.8 10.8C27.475 10.8 26.3438 10.3312 25.4063 9.39371C24.4688 8.45621 24 7.32496 24 5.99996C24 4.67496 24.4688 3.5437 25.4063 2.6062C26.3438 1.6687 27.475 1.19995 28.8 1.19995C30.125 1.19995 31.2562 1.6687 32.1937 2.6062C33.1312 3.5437 33.6 4.67496 33.6 5.99996Z" fill="black"/>
</svg>
