<svg width="16" height="16" viewBox="0 0 16 16" fill="none" xmlns="http://www.w3.org/2000/svg">
<path d="M10.3333 9.33333H9.80667L9.62 9.15333C10.2959 8.36935 10.6674 7.36846 10.6667 6.33333C10.6667 5.47628 10.4125 4.63848 9.93637 3.92586C9.46022 3.21325 8.78344 2.65784 7.99163 2.32986C7.19982 2.00188 6.32853 1.91606 5.48794 2.08327C4.64736 2.25047 3.87523 2.66318 3.26921 3.26921C2.66318 3.87523 2.25047 4.64736 2.08327 5.48794C1.91606 6.32853 2.00188 7.19982 2.32986 7.99163C2.65784 8.78344 3.21325 9.46022 3.92586 9.93637C4.63848 10.4125 5.47628 10.6667 6.33333 10.6667C7.40667 10.6667 8.39333 10.2733 9.15333 9.62L9.33333 9.80667V10.3333L12.6667 13.66L13.66 12.6667L10.3333 9.33333ZM6.33333 9.33333C4.67334 9.33333 3.33334 7.99333 3.33334 6.33333C3.33334 4.67334 4.67334 3.33334 6.33333 3.33334C7.99333 3.33334 9.33333 4.67334 9.33333 6.33333C9.33333 7.99333 7.99333 9.33333 6.33333 9.33333Z" fill="#727272"/>
</svg>
