<svg width="40" height="40" viewBox="0 0 40 40" fill="none" xmlns="http://www.w3.org/2000/svg">
<rect width="40" height="40" rx="20" fill="#FFFCF4"/>
<path d="M22.59 16L20 18.59L17.41 16L16 17.41L18.59 20L16 22.59L17.41 24L20 21.41L22.59 24L24 22.59L21.41 20L24 17.41L22.59 16ZM20 10C14.47 10 10 14.47 10 20C10 25.53 14.47 30 20 30C25.53 30 30 25.53 30 20C30 14.47 25.53 10 20 10ZM20 28C15.59 28 12 24.41 12 20C12 15.59 15.59 12 20 12C24.41 12 28 15.59 28 20C28 24.41 24.41 28 20 28Z" fill="#9B9B9B"/>
</svg>
