<svg width="40" height="40" viewBox="0 0 40 40" fill="none" xmlns="http://www.w3.org/2000/svg">
<rect width="40" height="40" rx="20" fill="#FFFCF4"/>
<path d="M30 13.18L18.59 24.6L14.35 20.36L15.76 18.95L18.59 21.78L28.59 11.78L30 13.18ZM27.79 18.22C27.92 18.79 28 19.39 28 20C28 24.42 24.42 28 20 28C15.58 28 12 24.42 12 20C12 15.58 15.58 12 20 12C21.58 12 23.04 12.46 24.28 13.25L25.72 11.81C24.0464 10.6296 22.048 9.99718 20 10C14.48 10 10 14.48 10 20C10 25.52 14.48 30 20 30C25.52 30 30 25.52 30 20C30 18.81 29.78 17.67 29.4 16.61L27.79 18.22Z" fill="#9B9B9B"/>
</svg>
